<svg height="512pt" viewBox="0 0 512 512" width="512pt" xmlns="http://www.w3.org/2000/svg"><path d="m512 256c0 141.386719-114.613281 256-256 256s-256-114.613281-256-256 114.613281-256 256-256 256 114.613281 256 256zm0 0" fill="#23e886"/><path d="m512 256c0-12.761719-.945312-25.296875-2.75-37.558594l-162.320312-162.320312-8.792969 28.5625h-114.5l-28.566407-28.5625-.703124 102.121094 60.910156 75.839843-90.207032 228.796875 45.007813 45.007813c14.898437 2.699219 30.246094 4.113281 45.921875 4.113281 141.386719 0 256-114.613281 256-256zm0 0" fill="#09cc66"/><g fill="#dbeeff"><path d="m180.070312 69.683594h150.992188v30h-150.992188zm0 0"/><path d="m194.367188 124.28125h127.121093v30h-127.121093zm0 0"/><path d="m214.761719 178.875h77.753906v30h-77.753906zm0 0"/><path d="m180.070312 419.679688h150.992188v30h-150.992188zm0 0"/><path d="m189.644531 365.082031h127.121094v30h-127.121094zm0 0"/><path d="m218.613281 310.484375h77.753907v30h-77.753907zm0 0"/></g><path d="m256 69.683594h75.0625v30h-75.0625zm0 0" fill="#a3d4ff"/><path d="m256 124.28125h65.484375v30h-65.484375zm0 0" fill="#a3d4ff"/><path d="m256 178.875h36.519531v30h-36.519531zm0 0" fill="#a3d4ff"/><path d="m256 419.679688h75.0625v30h-75.0625zm0 0" fill="#a3d4ff"/><path d="m256 365.082031h60.765625v30h-60.765625zm0 0" fill="#a3d4ff"/><path d="m256 310.484375h40.367188v30h-40.367188zm0 0" fill="#a3d4ff"/><path d="m195.070312 462.878906h-30c0-106.671875 40.117188-160.394531 78.910157-212.351562 37.515625-50.242188 72.949219-97.699219 72.949219-194.40625h30c0 106.671875-40.117188 160.398437-78.910157 212.355468-37.515625 50.238282-72.949219 97.695313-72.949219 194.402344zm0 0" fill="#2864f0"/><path d="m346.929688 462.878906h-30c0-96.707031-35.433594-144.160156-72.949219-194.402344-38.792969-51.957031-78.910157-105.683593-78.910157-212.355468h30c0 96.707031 35.4375 144.164062 72.949219 194.40625 38.792969 51.953125 78.910157 105.679687 78.910157 212.351562zm0 0" fill="#2864f0"/><path d="m346.929688 56.121094h-30c0 86.28125-28.207032 133.355468-60.929688 178.1875v50.386718c3.953125-5.417968 7.976562-10.804687 12.019531-16.21875 38.792969-51.957031 78.910157-105.683593 78.910157-212.355468zm0 0" fill="#27488f"/><path d="m346.929688 462.878906c0-106.671875-40.117188-160.394531-78.910157-212.351562-4.042969-5.417969-8.066406-10.804688-12.019531-16.21875v50.386718c32.722656 44.828126 60.929688 91.90625 60.929688 178.1875h30zm0 0" fill="#27488f"/></svg>