<?xml version="1.0" encoding="iso-8859-1"?>
<!-- Generator: Adobe Illustrator 19.0.0, SVG Export Plug-In . SVG Version: 6.00 Build 0)  -->
<svg version="1.1" id="Layer_1" xmlns="http://www.w3.org/2000/svg" xmlns:xlink="http://www.w3.org/1999/xlink" x="0px" y="0px"
	 viewBox="0 0 512 512" style="enable-background:new 0 0 512 512;" xml:space="preserve">
<circle style="fill:#71E2EF;" cx="256" cy="256" r="256"/>
<path style="fill:#38C6D9;" d="M88.781,126.009l-13.217,6.609L72.88,358.045l152.076,152.076
	c10.178,1.231,20.533,1.879,31.042,1.879c141.384,0,256-114.616,256-256c0-22.887-3.02-45.063-8.654-66.174l-66.793-66.793
	L88.781,126.009z"/>
<path style="fill:#223849;" d="M420.285,117.103H91.715c-13.974,0-25.345,11.371-25.345,25.345v198.659
	c0,13.974,11.371,25.345,25.345,25.345h328.569c13.974,0,25.345-11.371,25.345-25.345V142.448
	C445.63,128.472,434.259,117.103,420.285,117.103z M383.857,132.618l-13.081,78.484l-13.081-78.484H383.857z M308.855,132.618
	l-13.081,78.484l-13.081-78.484H308.855z M229.161,132.618l-13.081,78.484l-13.081-78.484H229.161z M156.508,132.618l-25.107,77.948
	l-0.874-77.948H156.508z M430.114,341.108c0,5.422-4.41,9.83-9.83,9.83H91.715c-5.422,0-9.83-4.41-9.83-9.83V142.448
	c0-5.422,4.41-9.83,9.83-9.83h23.293l1.412,125.759c0.043,3.803,2.838,7.013,6.596,7.582c0.393,0.059,0.781,0.088,1.167,0.088
	c3.32,0,6.335-2.136,7.378-5.379l41.246-128.05h14.462l21.158,126.948c0.622,3.739,3.858,6.482,7.651,6.482s7.028-2.743,7.651-6.482
	l21.157-126.948h22.076l21.157,126.948c0.622,3.739,3.858,6.482,7.651,6.482c3.793,0,7.028-2.743,7.651-6.482l21.158-126.948h17.382
	l21.158,126.948c0.622,3.739,3.858,6.482,7.651,6.482c3.793,0,7.028-2.743,7.651-6.482l21.158-126.948h20.699
	c5.422,0,9.83,4.41,9.83,9.83v198.659H430.114z"/>
<g>
	<circle style="fill:#FFFFFF;" cx="371.433" cy="267.033" r="31.453"/>
	<circle style="fill:#FFFFFF;" cx="296.426" cy="267.033" r="31.453"/>
	<circle style="fill:#FFFFFF;" cx="216.729" cy="267.033" r="31.453"/>
	<circle style="fill:#FFFFFF;" cx="124.828" cy="267.033" r="31.453"/>
</g>
<g>
	<path style="fill:#DDDDDD;" d="M340.051,265.481c-0.026,0.517-0.078,1.027-0.078,1.552c0,17.37,14.081,31.453,31.453,31.453
		s31.453-14.081,31.453-31.453c0-0.524-0.053-1.034-0.078-1.552H340.051z"/>
	<path style="fill:#DDDDDD;" d="M265.051,265.481c-0.026,0.517-0.078,1.027-0.078,1.552c0,17.37,14.081,31.453,31.453,31.453
		s31.453-14.081,31.453-31.453c0-0.524-0.053-1.034-0.078-1.552H265.051z"/>
	<path style="fill:#DDDDDD;" d="M185.354,265.481c-0.026,0.517-0.078,1.027-0.078,1.552c0,17.37,14.081,31.453,31.453,31.453
		c17.37,0,31.453-14.081,31.453-31.453c0-0.524-0.053-1.034-0.078-1.552H185.354z"/>
	<path style="fill:#DDDDDD;" d="M93.455,265.481c-0.026,0.517-0.078,1.027-0.078,1.552c0,17.37,14.081,31.453,31.453,31.453
		s31.453-14.081,31.453-31.453c0-0.524-0.053-1.034-0.078-1.552H93.455z"/>
</g>
<g>
</g>
<g>
</g>
<g>
</g>
<g>
</g>
<g>
</g>
<g>
</g>
<g>
</g>
<g>
</g>
<g>
</g>
<g>
</g>
<g>
</g>
<g>
</g>
<g>
</g>
<g>
</g>
<g>
</g>
</svg>
