<svg viewBox="0 0 512 512" xmlns="http://www.w3.org/2000/svg"><path d="m512 256c0 141.386719-114.613281 256-256 256s-256-114.613281-256-256 114.613281-256 256-256 256 114.613281 256 256zm0 0" fill="#ff9a00"/><path d="m512 256c0-33.199219-6.320312-64.917969-17.820312-94.027344l-48.179688-48.175781h-380v284.40625l95.972656 95.976563c29.109375 11.5 60.828125 17.820312 94.027344 17.820312 141.386719 0 256-114.613281 256-256zm0 0" fill="#e67500"/><path d="m66 113.796875h380v284.40625h-380zm0 0" fill="#fff"/><path d="m256 113.792969h190v284.414062h-190zm0 0" fill="#ffed97"/><path d="m85.363281 134.355469h341.273438v243.289062h-341.273438zm0 0" fill="#00b7be"/><path d="m256 134.351562h170.640625v243.296876h-170.640625zm0 0" fill="#00777b"/><path d="m160.261719 372.171875h-54.039063c-7.835937 0-14.25-6.414063-14.25-14.25v-21.207031c0-7.835938 6.414063-14.25 14.25-14.25h54.039063c7.835937 0 14.25 6.414062 14.25 14.25v21.207031c0 7.835937-6.414063 14.25-14.25 14.25zm0 0" fill="#57555c"/><path d="m160.261719 381.554688h-54.039063c-7.835937 0-14.25-6.414063-14.25-14.25v-21.207032c0-7.835937 6.414063-14.25 14.25-14.25h54.039063c7.835937 0 14.25 6.414063 14.25 14.25v21.207032c0 7.839843-6.414063 14.25-14.25 14.25zm0 0" fill="#ff328e"/><path d="m181.34375 361.039062h67.707031v20.515626h-67.707031zm0 0" fill="#fff5cb"/><path d="m207.492188 187.5625-32.964844 75.289062-20.09375-34.175781-15.605469 8.488281 37.71875 61.699219 42.726563-93.535156h134.382812v-17.765625zm0 0" fill="#fff"/><path d="m256 187.5625h97.65625v17.765625h-97.65625zm0 0" fill="#fff5cb"/><path d="m226.238281 291.503906c-2.234375 0-4.320312-.367187-6.257812-1.101562-1.941407-.738282-3.617188-1.765625-5.027344-3.085938-1.410156-1.324218-2.511719-2.867187-3.308594-4.632812-.792969-1.761719-1.1875-3.703125-1.1875-5.820313 0-2.171875.484375-4.1875 1.453125-6.039062.972656-1.851563 2.324219-3.421875 4.058594-4.71875 1.730469-1.289063 3.804688-2.304688 6.214844-3.039063 2.410156-.738281 5.054687-1.105468 7.933594-1.105468 2.058593 0 4.070312.175781 6.042968.53125 1.96875.351562 3.714844.851562 5.246094 1.5v-2.644532c0-3.058594-.871094-5.410156-2.601562-7.054687-1.734376-1.644531-4.308594-2.46875-7.714844-2.46875-2.46875 0-4.878906.4375-7.230469 1.320312-2.351563.882813-4.761719 2.175781-7.230469 3.878907l-3.617187-7.492188c5.9375-3.9375 12.347656-5.910156 19.222656-5.910156 6.644531 0 11.800781 1.632812 15.476563 4.894531 3.671874 3.261719 5.511718 7.980469 5.511718 14.152344v14.375c0 1.234375.21875 2.113281.660156 2.644531.441407.53125 1.160157.824219 2.160157.882812v10.050782c-2 .410156-3.734375.617187-5.203125.617187-2.234375 0-3.953125-.5-5.15625-1.5-1.207032-1-1.957032-2.320312-2.25-3.96875l-.265625-2.554687c-2.058594 2.703125-4.554688 4.761718-7.492188 6.171875-2.941406 1.410156-6.085937 2.117187-9.4375 2.117187zm3.351563-8.640625c2 0 3.894531-.355469 5.6875-1.058593 1.792968-.707032 3.191406-1.644532 4.191406-2.824219 1.289062-.996094 1.9375-2.113281 1.9375-3.347657v-5.292968c-1.410156-.527344-2.9375-.953125-4.585938-1.277344-1.644531-.324219-3.230468-.484375-4.761718-.484375-3.054688 0-5.554688.691406-7.492188 2.070313-1.941406 1.382812-2.910156 3.128906-2.910156 5.246093 0 2 .761719 3.660157 2.292969 4.984375 1.527343 1.320313 3.40625 1.984375 5.640625 1.984375zm0 0" fill="#fff"/><g fill="#fff5cb"><path d="m294.046875 254.558594v9.519531h-9.082031v9.964844h-10.667969v-9.964844h-9.082031v-9.519531h9.082031v-9.964844h10.667969v9.964844zm0 0"/><path d="m332.050781 291.503906c-3.527343 0-6.671875-.792968-9.433593-2.382812-2.765626-1.585938-4.9375-3.757813-6.523438-6.523438v8.023438h-10.320312v-64.371094h11.816406v26.277344c1.644531-2.820313 3.808594-5.011719 6.480468-6.566406 2.675782-1.558594 5.808594-2.339844 9.394532-2.339844 2.996094 0 5.730468.648437 8.199218 1.941406s4.597657 3.027344 6.394532 5.203125c1.789062 2.175781 3.171875 4.730469 4.140625 7.671875.972656 2.9375 1.457031 6.023438 1.457031 9.257812 0 3.351563-.542969 6.464844-1.632812 9.34375-1.085938 2.882813-2.597657 5.394532-4.539063 7.539063-1.941406 2.148437-4.234375 3.835937-6.878906 5.070313-2.644531 1.238281-5.496094 1.855468-8.554688 1.855468zm-3.261719-10.054687c1.878907 0 3.613282-.363281 5.203126-1.101563 1.585937-.734375 2.9375-1.71875 4.054687-2.953125s1.984375-2.675781 2.601563-4.320312c.617187-1.644531.925781-3.410157.925781-5.292969 0-1.878906-.292969-3.671875-.882813-5.378906-.585937-1.703125-1.425781-3.203125-2.511718-4.496094-1.085938-1.292969-2.367188-2.320312-3.835938-3.085938-1.46875-.761718-3.085938-1.144531-4.851562-1.144531-2.644532 0-5.011719.867188-7.097657 2.597657-2.085937 1.738281-3.6875 3.867187-4.804687 6.394531v11.023437c.410156 1.175782 1.015625 2.234375 1.808594 3.171875.792968.941407 1.691406 1.75 2.691406 2.425781.996094.679688 2.082031 1.207032 3.261718 1.589844 1.175782.382813 2.320313.570313 3.4375.570313zm0 0"/></g></svg>